<?xml version="1.0" encoding="UTF-8" standalone="no"?>
<!DOCTYPE svg PUBLIC "-//W3C//DTD SVG 1.1//EN" "http://www.w3.org/Graphics/SVG/1.1/DTD/svg11.dtd">
<svg width="100%" height="100%" viewBox="0 0 260 200" version="1.1" xmlns="http://www.w3.org/2000/svg" xmlns:xlink="http://www.w3.org/1999/xlink" xml:space="preserve" xmlns:serif="http://www.serif.com/" style="fill-rule:evenodd;clip-rule:evenodd;stroke-linejoin:round;stroke-miterlimit:2;">
    <rect x="0" y="0" width="260" height="200" style="fill:url(#_Linear1);"/>
    <g transform="matrix(1,0,0,1,-10,-15)">
        <ellipse cx="140" cy="55" rx="60" ry="15" style="fill:white;"/>
    </g>
    <g transform="matrix(1,0,0,1,0,-50)">
        <path d="M190,130C190,138.279 163.115,145 130,145C96.885,145 70,138.279 70,130L70,100L70,100.048C70.105,108.305 96.95,115 130,115C163.115,115 190,108.279 190,100L190,130Z" style="fill:white;"/>
    </g>
    <g transform="matrix(1,0,0,1,0,-10)">
        <path d="M190,130C190,138.279 163.115,145 130,145C96.885,145 70,138.279 70,130L70,100L70,100.048C70.105,108.305 96.95,115 130,115C163.115,115 190,108.279 190,100L190,130Z" style="fill:white;"/>
    </g>
    <g transform="matrix(1,0,0,1,0,30)">
        <path d="M190,130C190,138.279 163.115,145 130,145C96.885,145 70,138.279 70,130L70,100L70,100.048C70.105,108.305 96.95,115 130,115C163.115,115 190,108.279 190,100L190,130Z" style="fill:white;"/>
    </g>
    <defs>
        <linearGradient id="_Linear1" x1="0" y1="0" x2="1" y2="0" gradientUnits="userSpaceOnUse" gradientTransform="matrix(260,120,-120,260,0,40)"><stop offset="0" style="stop-color:rgb(84,0,75);stop-opacity:1"/><stop offset="1" style="stop-color:rgb(57,0,156);stop-opacity:1"/></linearGradient>
    </defs>
</svg>
