<?xml version="1.0" encoding="UTF-8" standalone="no"?><!DOCTYPE svg PUBLIC "-//W3C//DTD SVG 1.1//EN" "http://www.w3.org/Graphics/SVG/1.1/DTD/svg11.dtd"><svg width="100%" height="100%" viewBox="0 0 80 80" version="1.1" xmlns="http://www.w3.org/2000/svg" xmlns:xlink="http://www.w3.org/1999/xlink" xml:space="preserve" xmlns:serif="http://www.serif.com/" style="fill-rule:evenodd;clip-rule:evenodd;stroke-linejoin:round;stroke-miterlimit:2;"><path d="M54,35l0,-3l-6.023,0c-1.091,0 -1.977,-0.886 -1.977,-1.977l0,-0.023l-6,0c-5.498,0 -9.965,4.446 -10,9.935l0,0.065l0,25l0.05,0c0.5,5.03 4.733,8.967 9.885,9l0.065,0l37,0c1.656,0 3,1.344 3,3c0,1.656 -1.344,3 -3,3l-74,0c-1.656,0 -3,-1.344 -3,-3c0,-1.656 1.344,-3 3,-3l7,0l0,-44.855c-5.823,-2.061 -10,-7.619 -10,-14.145c0,-8.279 6.721,-15 15,-15l45,0c6.526,0 12.084,4.177 14.145,10l3.355,0c1.38,0 2.5,1.12 2.5,2.5l0,5c0,1.38 -1.12,2.5 -2.5,2.5l-2,0l0,1.959c0,4.438 -3.603,8.041 -8.041,8.041l-1.459,0l0,0.023c0,1.091 -0.886,1.977 -1.977,1.977l-6.023,0l0,3l18,0c1.105,0 2,0.895 2,2l0,18c0,1.785 -0.695,4.123 -2.162,6.496c-3.15,5.098 -9.874,10.504 -19.838,10.504c-9.287,0 -14.706,-2.857 -17.847,-6.271c-3.291,-3.577 -4.153,-7.867 -4.153,-10.729l0,-18c0,-1.105 0.895,-2 2,-2l18,0Zm4,7.418l1.5,0c3.036,0 5.5,2.464 5.5,5.5l0,10.582c0,3.036 -2.464,5.5 -5.5,5.5l-7,0c-3.036,0 -5.5,-2.464 -5.5,-5.5c0,0 0,-10.582 0,-10.582c0,-3.036 2.464,-5.5 5.5,-5.5l1.5,0l0,-3.418l-16,0l0,16c0,2.138 0.638,5.348 3.097,8.021c2.609,2.836 7.189,4.979 14.903,4.979c7.074,0 12.2,-3.241 15.161,-6.832c1.815,-2.203 2.839,-4.499 2.839,-6.168l0,-16l-16,0l0,3.418Zm-4,4l-1.5,0c-0.828,0 -1.5,0.672 -1.5,1.5l0,10.582c0,0.828 0.672,1.5 1.5,1.5l1.5,0l0,-13.582Zm4,0l0,13.582l1.5,0c0.828,0 1.5,-0.672 1.5,-1.5l0,-10.582c0,-0.828 -0.672,-1.5 -1.5,-1.5l-1.5,0Z" style="fill:#fff;"/></svg>