<?xml version="1.0" encoding="UTF-8" standalone="no"?><!DOCTYPE svg PUBLIC "-//W3C//DTD SVG 1.1//EN" "http://www.w3.org/Graphics/SVG/1.1/DTD/svg11.dtd"><svg width="100%" height="100%" viewBox="0 0 260 200" version="1.1" xmlns="http://www.w3.org/2000/svg" xmlns:xlink="http://www.w3.org/1999/xlink" xml:space="preserve" xmlns:serif="http://www.serif.com/" style="fill-rule:evenodd;clip-rule:evenodd;stroke-linecap:round;stroke-miterlimit:5;"><path d="M240,28.031c0,-4.433 -3.598,-8.031 -8.031,-8.031l-203.938,0c-4.433,0 -8.031,3.598 -8.031,8.031l0,143.938c0,4.433 3.598,8.031 8.031,8.031l203.938,0c4.433,0 8.031,-3.598 8.031,-8.031l0,-143.938Z" style="fill:#fff;stroke:#000;stroke-width:10px;"/><path d="M100,120l30,0" style="fill:none;stroke:#000;stroke-width:8px;"/><path d="M140,120l50,0" style="fill:none;stroke:#000;stroke-width:8px;"/><path d="M200,120l20,0" style="fill:none;stroke:#000;stroke-width:8px;"/><path d="M90,130l20,0" style="fill:none;stroke:#000;stroke-width:8px;"/><path d="M120,130l50,0" style="fill:none;stroke:#000;stroke-width:8px;"/><path d="M180,130l40,0" style="fill:none;stroke:#000;stroke-width:8px;"/><path d="M100,140l30,0" style="fill:none;stroke:#000;stroke-width:8px;"/><path d="M140,140l20,0" style="fill:none;stroke:#000;stroke-width:8px;"/><path d="M170,140l10,0" style="fill:none;stroke:#000;stroke-width:8px;"/><path d="M190,140l30,0" style="fill:none;stroke:#000;stroke-width:8px;"/><path d="M40,122.231l20,-42.231l20,10l20,-10l20,10l20,-30l40,20l20,-10l20,-20" style="fill:none;stroke:#000;stroke-width:4px;stroke-linejoin:round;stroke-miterlimit:1.5;"/><path d="M40,80l20,20l20,-10l20,-30l20,20l20,-10l20,20l20,-30l20,-10l20,10" style="fill:none;stroke:#f4ca10;stroke-width:4px;stroke-linejoin:round;stroke-miterlimit:1.5;"/></svg>