<?xml version="1.0" encoding="UTF-8" standalone="no"?>
<!DOCTYPE svg PUBLIC "-//W3C//DTD SVG 1.1//EN" "http://www.w3.org/Graphics/SVG/1.1/DTD/svg11.dtd">
<svg width="100%" height="100%" viewBox="0 0 300 240" version="1.1" xmlns="http://www.w3.org/2000/svg" xmlns:xlink="http://www.w3.org/1999/xlink" xml:space="preserve" xmlns:serif="http://www.serif.com/" style="fill-rule:evenodd;clip-rule:evenodd;stroke-linejoin:round;stroke-miterlimit:2;">
    <g id="Background" transform="matrix(1.49672,0,0,1.1441,-143.866,-30.4862)">
        <rect x="96.121" y="26.647" width="200.439" height="209.773" style="fill:url(#_Linear1);"/>
    </g>
    <g transform="matrix(2.6869,0,0,2.6869,0.885249,-19.2144)">
        <text x="31.423px" y="66.184px" style="font-family:'Tahoma', sans-serif;font-size:12px;fill:white;">Sort V<tspan x="63.345px 69.644px " y="66.184px 66.184px ">ar</tspan>iables</text>
    </g>
    <g transform="matrix(2.46498,0,0,2.46498,-70.8399,49.5486)">
        <text x="31.423px" y="66.184px" style="font-family:'Tahoma', sans-serif;font-size:12px;fill:white;">Compose Oper<tspan x="109.353px 115.652px " y="66.184px 66.184px ">at</tspan>ions</text>
    </g>
    <g transform="matrix(2.6869,0,0,2.6869,-79.0142,-49.7069)">
        <text x="31.423px" y="66.184px" style="font-family:'Tahoma', sans-serif;font-size:12px;fill:white;">R<tspan x="38.654px 44.97px " y="66.184px 66.184px ">ed</tspan>uce P<tspan x="80.238px 86.537px 90.656px 96.955px " y="66.184px 66.184px 66.184px 66.184px ">aram</tspan>eters</text>
    </g>
    <g transform="matrix(3.22373,0,0,3.22373,-91.9886,-36.0951)">
        <text x="31.423px" y="66.184px" style="font-family:'Tahoma', sans-serif;font-size:12px;fill:rgb(253,160,255);">Create Delegate</text>
    </g>
    <g transform="matrix(2.89118,0,0,2.89118,-63.5676,6.49875)">
        <text x="31.423px" y="66.184px" style="font-family:'Tahoma', sans-serif;font-size:12px;fill:rgb(221,230,255);">T<tspan x="37.207px 43.523px " y="66.184px 66.184px ">em</tspan>plate Method</text>
    </g>
    <g transform="matrix(2.78448,0,0,2.78448,-38.4777,-83.6112)">
        <text x="31.423px" y="66.184px" style="font-family:'Tahoma', sans-serif;font-size:12px;fill:rgb(255,209,228);">Extr<tspan x="52.23px 58.529px " y="66.184px 66.184px ">ac</tspan>t Interf<tspan x="101.267px 107.566px " y="66.184px 66.184px ">ac</tspan>e</text>
    </g>
    <g transform="matrix(4.63666,0,0,4.63666,-103.275,-254.478)">
        <text x="31.423px" y="66.184px" style="font-family:'Tahoma', sans-serif;font-size:12px;fill:white;">R<tspan x="38.654px 44.97px " y="66.184px 66.184px ">en</tspan>ame</text>
    </g>
    <g transform="matrix(3.16675,0,0,3.16675,-94.4004,-138.163)">
        <text x="31.423px" y="66.184px" style="font-family:'Tahoma', sans-serif;font-size:12px;fill:rgb(158,212,255);">Extr<tspan x="52.23px 58.529px " y="66.184px 66.184px ">ac</tspan>t Method</text>
    </g>
    <defs>
        <linearGradient id="_Linear1" x1="0" y1="0" x2="1" y2="0" gradientUnits="userSpaceOnUse" gradientTransform="matrix(200.439,0,0,209.773,96.1207,131.533)"><stop offset="0" style="stop-color:rgb(10,0,255);stop-opacity:1"/><stop offset="1" style="stop-color:rgb(80,38,148);stop-opacity:1"/></linearGradient>
    </defs>
</svg>
