<?xml version="1.0" encoding="UTF-8" standalone="no"?>
<!DOCTYPE svg PUBLIC "-//W3C//DTD SVG 1.1//EN" "http://www.w3.org/Graphics/SVG/1.1/DTD/svg11.dtd">
<svg width="100%" height="100%" viewBox="0 0 260 200" version="1.1" xmlns="http://www.w3.org/2000/svg" xmlns:xlink="http://www.w3.org/1999/xlink" xml:space="preserve" xmlns:serif="http://www.serif.com/" style="fill-rule:evenodd;clip-rule:evenodd;">
    <rect x="0" y="0" width="260" height="200" style="fill:rgb(255,177,59);"/>
    <g transform="matrix(1.8,0,0,1.8,130,100)">
        <g transform="matrix(1,0,0,1,-50,-50)">
            <g>
                <path id="background" d="M100,4C100,1.792 98.208,0 96,0L4,0C1.792,0 0,1.792 0,4L0,96C0,98.208 1.792,100 4,100L96,100C98.208,100 100,98.208 100,96L100,4Z" style="fill:rgb(255,153,0);"/>
                <path id="top-left" d="M50,4C50,1.792 48.208,0 46,0L4,0C1.792,0 0,1.792 0,4L0,46C0,48.208 1.792,50 4,50L46,50C48.208,50 50,48.208 50,46L50,4Z" style="fill:rgb(255,177,59);"/>
                <path id="bottom-right" d="M100,54C100,51.792 98.208,50 96,50L54,50C51.792,50 50,51.792 50,54L50,96C50,98.208 51.792,100 54,100L96,100C98.208,100 100,98.208 100,96L100,54Z" style="fill:rgb(222,133,0);"/>
                <g id="circles">
                    <circle id="n" cx="50" cy="18.4" r="18.4" style="fill:rgb(255,153,0);"/>
                    <circle id="ne" cx="72.4" cy="27.6" r="18.4" style="fill:rgb(255,153,0);"/>
                    <circle id="e" cx="81.6" cy="50" r="18.4" style="fill:rgb(255,153,0);"/>
                    <circle id="se" cx="72.4" cy="72.4" r="18.4" style="fill:rgb(255,153,0);"/>
                    <circle id="s" cx="50" cy="81.6" r="18.4" style="fill:rgb(255,153,0);"/>
                    <circle id="sw" cx="27.6" cy="72.4" r="18.4" style="fill:rgb(255,153,0);"/>
                    <circle id="w" cx="18.4" cy="50" r="18.4" style="fill:rgb(255,153,0);"/>
                    <circle id="nw" cx="27.6" cy="27.6" r="18.4" style="fill:rgb(255,153,0);"/>
                </g>
                <g id="stars">
                    <path id="black-star" d="M63.086,18.385C63.086,11.158 57.227,5.299 49.986,5.299C42.751,5.299 36.89,11.158 36.89,18.385C31.79,13.275 23.495,13.275 18.393,18.385C13.274,23.505 13.274,31.793 18.393,36.909C11.159,36.909 5.29,42.768 5.29,49.994C5.29,57.224 11.16,63.092 18.393,63.092C13.274,68.202 13.274,76.487 18.393,81.607C23.495,86.711 31.79,86.711 36.89,81.607C36.89,88.835 42.75,94.69 49.986,94.69C57.226,94.69 63.086,88.835 63.086,81.607C68.204,86.711 76.502,86.711 81.599,81.607C86.7,76.487 86.7,68.197 81.599,63.092C88.815,63.092 94.68,57.223 94.68,49.994C94.68,42.767 88.815,36.909 81.599,36.909C86.7,31.79 86.7,23.503 81.599,18.385C76.502,13.275 68.206,13.275 63.086,18.385Z" style="fill-rule:nonzero;"/>
                    <path id="white-star" d="M55.003,23.405L55.003,37.893L65.26,27.64C65.26,25.828 65.951,24.022 67.326,22.635C70.106,19.864 74.601,19.864 77.35,22.635C80.121,25.401 80.121,29.89 77.35,32.662C75.973,34.037 74.155,34.734 72.335,34.734L62.101,44.982L76.59,44.982C77.88,43.702 79.644,42.906 81.601,42.906C85.501,42.906 88.679,46.085 88.679,49.993C88.679,53.899 85.501,57.081 81.601,57.081C79.644,57.081 77.88,56.283 76.59,55.009L62.1,55.009L72.329,65.253C74.153,65.253 75.971,65.947 77.344,67.339C80.118,70.098 80.118,74.589 77.344,77.349C74.594,80.123 70.105,80.123 67.319,77.349C65.947,75.977 65.255,74.157 65.255,72.346L55,62.094L55,76.593C56.271,77.869 57.084,79.647 57.084,81.606C57.084,85.512 53.907,88.683 49.986,88.683C46.067,88.683 42.892,85.516 42.892,81.606C42.892,79.647 43.703,77.874 44.973,76.593L44.973,62.094L34.738,72.346C34.738,74.158 34.033,75.973 32.654,77.349C29.885,80.121 25.403,80.121 22.63,77.349C19.855,74.585 19.855,70.096 22.63,67.337C24.007,65.947 25.844,65.251 27.642,65.251L37.899,55.009L23.414,55.009C22.125,56.285 20.342,57.081 18.399,57.081C14.482,57.081 11.303,53.901 11.303,49.993C11.303,46.085 14.48,42.906 18.399,42.906C20.339,42.906 22.124,43.702 23.414,44.982L37.902,44.982L27.646,34.736C25.849,34.736 24.014,34.039 22.634,32.665C19.859,29.893 19.859,25.405 22.634,22.638C25.407,19.867 29.89,19.867 32.661,22.638C34.036,24.024 34.744,25.833 34.744,27.643L44.979,37.895L44.979,23.407C43.709,22.12 42.897,20.354 42.897,18.384C42.897,14.476 46.072,11.305 49.993,11.305C53.912,11.305 57.09,14.473 57.09,18.384C57.088,20.356 56.274,22.119 55.003,23.405Z" style="fill:white;fill-rule:nonzero;"/>
                </g>
                <g id="svg-textbox">
                    <path id="text-backdrop" d="M5.3,50L94.68,50L94.68,90C94.68,93.333 93.013,95 89.68,95L10.3,95C6.967,95 5.3,93.333 5.3,90L5.3,50Z" style="fill-rule:nonzero;"/>
                    <path id="shine" d="M14.657,54.211L86.051,54.211C88.959,54.211 91.363,56.596 91.363,59.526L91.363,77.436C63.779,74.033 36.437,69.311 9.352,69.753L9.352,59.526C9.353,56.596 11.743,54.211 14.657,54.211Z" style="fill:rgb(63,63,63);fill-rule:nonzero;"/>
                    <g id="svg-text">
                        <path id="S" d="M18.312,72.927C16.209,70.82 14.905,67.899 14.905,64.674C14.905,58.229 20.128,53.002 26.571,53.002C33.017,53.002 38.238,58.227 38.238,64.674L31.406,64.674C31.406,62 29.238,59.837 26.571,59.837C23.908,59.837 21.733,62 21.733,64.674C21.733,66.012 22.282,67.21 23.148,68.094C24.031,68.968 25.249,69.499 26.571,69.499L26.571,69.511C29.803,69.511 32.716,70.82 34.814,72.927C36.932,75.038 38.238,77.961 38.238,81.175C38.238,87.629 33.017,92.855 26.571,92.855C20.129,92.855 14.905,87.633 14.905,81.175L21.733,81.175C21.733,83.854 23.908,86.01 26.571,86.01C29.238,86.01 31.406,83.854 31.406,81.175C31.406,79.846 30.861,78.648 29.977,77.768C29.113,76.888 27.895,76.35 26.571,76.35C23.341,76.35 20.429,75.036 18.312,72.927Z" style="fill:white;fill-rule:nonzero;stroke:black;stroke-width:0.5px;"/>
                        <path id="V" d="M61.588,53.005L53.344,92.854L46.494,92.854L38.236,53.005L45.082,53.005L49.92,76.342L54.755,53.005L61.588,53.005Z" style="fill:white;fill-rule:nonzero;stroke:black;stroke-width:0.5px;"/>
                        <path id="G" d="M73.255,69.513L84.938,69.513L84.938,81.177C84.938,87.629 79.712,92.855 73.269,92.855C66.828,92.855 61.603,87.629 61.603,81.177L61.603,64.676L61.586,64.676C61.586,58.229 66.827,53 73.253,53C79.712,53 84.936,58.225 84.936,64.676L78.087,64.676C78.087,62.002 75.935,59.839 73.253,59.839C70.606,59.839 68.433,62.002 68.433,64.676L68.433,81.177C68.433,83.852 70.606,86.014 73.253,86.014C75.935,86.014 78.087,83.852 78.087,81.187L78.087,81.175L78.087,76.348L73.253,76.348L73.255,69.513Z" style="fill:white;fill-rule:nonzero;stroke:black;stroke-width:0.5px;"/>
                    </g>
                </g>
            </g>
        </g>
    </g>
</svg>
